<svg width="210" height="32" viewBox="0 0 210 32" fill="none" xmlns="http://www.w3.org/2000/svg">
<path d="M1.82865 24V7.2H12.7966V9.672H4.90065V14.28H12.0766V16.68H4.90065V21.528H12.7966V24H1.82865ZM19.443 24.288C18.419 24.288 17.579 24.128 16.923 23.808C16.267 23.472 15.779 23.032 15.459 22.488C15.139 21.944 14.979 21.344 14.979 20.688C14.979 19.584 15.411 18.688 16.275 18C17.139 17.312 18.435 16.968 20.163 16.968H23.187V16.68C23.187 15.864 22.955 15.264 22.491 14.88C22.027 14.496 21.451 14.304 20.763 14.304C20.139 14.304 19.595 14.456 19.131 14.76C18.667 15.048 18.379 15.48 18.267 16.056H15.267C15.347 15.192 15.635 14.44 16.131 13.8C16.643 13.16 17.299 12.672 18.099 12.336C18.899 11.984 19.795 11.808 20.787 11.808C22.483 11.808 23.819 12.232 24.795 13.08C25.771 13.928 26.259 15.128 26.259 16.68V24H23.643L23.355 22.08C23.003 22.72 22.507 23.248 21.867 23.664C21.243 24.08 20.435 24.288 19.443 24.288ZM20.139 21.888C21.019 21.888 21.699 21.6 22.179 21.024C22.675 20.448 22.987 19.736 23.115 18.888H20.499C19.683 18.888 19.099 19.04 18.747 19.344C18.395 19.632 18.219 19.992 18.219 20.424C18.219 20.888 18.395 21.248 18.747 21.504C19.099 21.76 19.563 21.888 20.139 21.888ZM28.8978 24V12.096H31.6338L31.9218 14.328C32.3538 13.56 32.9378 12.952 33.6738 12.504C34.4258 12.04 35.3058 11.808 36.3138 11.808V15.048H35.4498C34.7778 15.048 34.1778 15.152 33.6498 15.36C33.1218 15.568 32.7058 15.928 32.4018 16.44C32.1138 16.952 31.9698 17.664 31.9698 18.576V24H28.8978ZM43.4248 24C42.1768 24 41.1768 23.696 40.4248 23.088C39.6728 22.48 39.2968 21.4 39.2968 19.848V14.664H37.2568V12.096H39.2968L39.6568 8.904H42.3688V12.096H45.5848V14.664H42.3688V19.872C42.3688 20.448 42.4888 20.848 42.7288 21.072C42.9848 21.28 43.4168 21.384 44.0248 21.384H45.5128V24H43.4248ZM47.9297 24V6.72H51.0017V13.92C51.4017 13.264 51.9377 12.752 52.6097 12.384C53.2977 12 54.0817 11.808 54.9617 11.808C56.4337 11.808 57.5697 12.272 58.3697 13.2C59.1857 14.128 59.5937 15.488 59.5937 17.28V24H56.5457V17.568C56.5457 16.544 56.3377 15.76 55.9217 15.216C55.5217 14.672 54.8817 14.4 54.0017 14.4C53.1377 14.4 52.4177 14.704 51.8417 15.312C51.2817 15.92 51.0017 16.768 51.0017 17.856V24H47.9297ZM67.7366 24V7.2H74.4806C76.2246 7.2 77.5526 7.608 78.4646 8.424C79.3926 9.224 79.8566 10.256 79.8566 11.52C79.8566 12.576 79.5686 13.424 78.9926 14.064C78.4326 14.688 77.7446 15.112 76.9286 15.336C77.8886 15.528 78.6806 16.008 79.3046 16.776C79.9286 17.528 80.2406 18.408 80.2406 19.416C80.2406 20.744 79.7606 21.84 78.8006 22.704C77.8406 23.568 76.4806 24 74.7206 24H67.7366ZM70.8086 14.256H74.0246C74.8886 14.256 75.5526 14.056 76.0166 13.656C76.4806 13.256 76.7126 12.688 76.7126 11.952C76.7126 11.248 76.4806 10.696 76.0166 10.296C75.5686 9.88 74.8886 9.672 73.9766 9.672H70.8086V14.256ZM70.8086 21.504H74.2406C75.1526 21.504 75.8566 21.296 76.3526 20.88C76.8646 20.448 77.1206 19.848 77.1206 19.08C77.1206 18.296 76.8566 17.68 76.3286 17.232C75.8006 16.784 75.0886 16.56 74.1926 16.56H70.8086V21.504ZM88.2966 24.288C87.0966 24.288 86.0326 24.032 85.1046 23.52C84.1766 23.008 83.4486 22.288 82.9206 21.36C82.3926 20.432 82.1286 19.36 82.1286 18.144C82.1286 16.912 82.3846 15.816 82.8966 14.856C83.4246 13.896 84.1446 13.152 85.0566 12.624C85.9846 12.08 87.0726 11.808 88.3206 11.808C89.4886 11.808 90.5206 12.064 91.4166 12.576C92.3126 13.088 93.0086 13.792 93.5046 14.688C94.0166 15.568 94.2726 16.552 94.2726 17.64C94.2726 17.816 94.2646 18 94.2486 18.192C94.2486 18.384 94.2406 18.584 94.2246 18.792H85.1766C85.2406 19.72 85.5606 20.448 86.1366 20.976C86.7286 21.504 87.4406 21.768 88.2726 21.768C88.8966 21.768 89.4166 21.632 89.8326 21.36C90.2646 21.072 90.5846 20.704 90.7926 20.256H93.9126C93.6886 21.008 93.3126 21.696 92.7846 22.32C92.2726 22.928 91.6326 23.408 90.8646 23.76C90.1126 24.112 89.2566 24.288 88.2966 24.288ZM88.3206 14.304C87.5686 14.304 86.9046 14.52 86.3286 14.952C85.7526 15.368 85.3846 16.008 85.2246 16.872H91.1526C91.1046 16.088 90.8166 15.464 90.2886 15C89.7606 14.536 89.1046 14.304 88.3206 14.304ZM101.484 24.288C100.428 24.288 99.4996 24.12 98.6996 23.784C97.8996 23.432 97.2596 22.952 96.7796 22.344C96.2996 21.736 96.0116 21.032 95.9156 20.232H99.0116C99.1076 20.696 99.3636 21.096 99.7796 21.432C100.212 21.752 100.764 21.912 101.436 21.912C102.108 21.912 102.596 21.776 102.9 21.504C103.22 21.232 103.38 20.92 103.38 20.568C103.38 20.056 103.156 19.712 102.708 19.536C102.26 19.344 101.636 19.16 100.836 18.984C100.324 18.872 99.8036 18.736 99.2756 18.576C98.7476 18.416 98.2596 18.216 97.8116 17.976C97.3796 17.72 97.0276 17.4 96.7556 17.016C96.4836 16.616 96.3476 16.128 96.3476 15.552C96.3476 14.496 96.7636 13.608 97.5956 12.888C98.4436 12.168 99.6276 11.808 101.148 11.808C102.556 11.808 103.676 12.136 104.508 12.792C105.356 13.448 105.86 14.352 106.02 15.504H103.116C102.94 14.624 102.276 14.184 101.124 14.184C100.548 14.184 100.1 14.296 99.7796 14.52C99.4756 14.744 99.3236 15.024 99.3236 15.36C99.3236 15.712 99.5556 15.992 100.02 16.2C100.484 16.408 101.1 16.6 101.868 16.776C102.7 16.968 103.46 17.184 104.148 17.424C104.852 17.648 105.412 17.992 105.828 18.456C106.244 18.904 106.452 19.552 106.452 20.4C106.468 21.136 106.276 21.8 105.876 22.392C105.476 22.984 104.9 23.448 104.148 23.784C103.396 24.12 102.508 24.288 101.484 24.288ZM113.809 24C112.561 24 111.561 23.696 110.809 23.088C110.057 22.48 109.681 21.4 109.681 19.848V14.664H107.641V12.096H109.681L110.041 8.904H112.753V12.096H115.969V14.664H112.753V19.872C112.753 20.448 112.873 20.848 113.113 21.072C113.369 21.28 113.801 21.384 114.409 21.384H115.897V24H113.809Z" fill="white"/>
<path d="M123.812 24V7.2H126.884V14.184H134.42V7.2H137.492V24H134.42V16.68H126.884V24H123.812ZM144.497 24.288C143.473 24.288 142.633 24.128 141.977 23.808C141.321 23.472 140.833 23.032 140.513 22.488C140.193 21.944 140.033 21.344 140.033 20.688C140.033 19.584 140.465 18.688 141.329 18C142.193 17.312 143.489 16.968 145.217 16.968H148.241V16.68C148.241 15.864 148.009 15.264 147.545 14.88C147.081 14.496 146.505 14.304 145.817 14.304C145.193 14.304 144.649 14.456 144.185 14.76C143.721 15.048 143.433 15.48 143.321 16.056H140.321C140.401 15.192 140.689 14.44 141.185 13.8C141.697 13.16 142.353 12.672 143.153 12.336C143.953 11.984 144.849 11.808 145.841 11.808C147.537 11.808 148.873 12.232 149.849 13.08C150.825 13.928 151.313 15.128 151.313 16.68V24H148.697L148.409 22.08C148.057 22.72 147.561 23.248 146.921 23.664C146.297 24.08 145.489 24.288 144.497 24.288ZM145.193 21.888C146.073 21.888 146.753 21.6 147.233 21.024C147.729 20.448 148.041 19.736 148.169 18.888H145.553C144.737 18.888 144.153 19.04 143.801 19.344C143.449 19.632 143.273 19.992 143.273 20.424C143.273 20.888 143.449 21.248 143.801 21.504C144.153 21.76 144.617 21.888 145.193 21.888ZM153.952 24V12.096H156.688L156.976 14.328C157.408 13.56 157.992 12.952 158.728 12.504C159.48 12.04 160.36 11.808 161.368 11.808V15.048H160.504C159.832 15.048 159.232 15.152 158.704 15.36C158.176 15.568 157.76 15.928 157.456 16.44C157.168 16.952 157.024 17.664 157.024 18.576V24H153.952ZM166.391 24L162.023 12.096H165.239L168.263 21.096L171.287 12.096H174.503L170.111 24H166.391ZM181.346 24.288C180.146 24.288 179.082 24.032 178.154 23.52C177.226 23.008 176.498 22.288 175.97 21.36C175.442 20.432 175.178 19.36 175.178 18.144C175.178 16.912 175.434 15.816 175.946 14.856C176.474 13.896 177.194 13.152 178.106 12.624C179.034 12.08 180.122 11.808 181.37 11.808C182.538 11.808 183.57 12.064 184.466 12.576C185.362 13.088 186.058 13.792 186.554 14.688C187.066 15.568 187.322 16.552 187.322 17.64C187.322 17.816 187.314 18 187.298 18.192C187.298 18.384 187.29 18.584 187.274 18.792H178.226C178.29 19.72 178.61 20.448 179.186 20.976C179.778 21.504 180.49 21.768 181.322 21.768C181.946 21.768 182.466 21.632 182.882 21.36C183.314 21.072 183.634 20.704 183.842 20.256H186.962C186.738 21.008 186.362 21.696 185.834 22.32C185.322 22.928 184.682 23.408 183.914 23.76C183.162 24.112 182.306 24.288 181.346 24.288ZM181.37 14.304C180.618 14.304 179.954 14.52 179.378 14.952C178.802 15.368 178.434 16.008 178.274 16.872H184.202C184.154 16.088 183.866 15.464 183.338 15C182.81 14.536 182.154 14.304 181.37 14.304ZM194.533 24.288C193.477 24.288 192.549 24.12 191.749 23.784C190.949 23.432 190.309 22.952 189.829 22.344C189.349 21.736 189.061 21.032 188.965 20.232H192.061C192.157 20.696 192.413 21.096 192.829 21.432C193.261 21.752 193.813 21.912 194.485 21.912C195.157 21.912 195.645 21.776 195.949 21.504C196.269 21.232 196.429 20.92 196.429 20.568C196.429 20.056 196.205 19.712 195.757 19.536C195.309 19.344 194.685 19.16 193.885 18.984C193.373 18.872 192.853 18.736 192.325 18.576C191.797 18.416 191.309 18.216 190.861 17.976C190.429 17.72 190.077 17.4 189.805 17.016C189.533 16.616 189.397 16.128 189.397 15.552C189.397 14.496 189.813 13.608 190.645 12.888C191.493 12.168 192.677 11.808 194.197 11.808C195.605 11.808 196.725 12.136 197.557 12.792C198.405 13.448 198.909 14.352 199.069 15.504H196.165C195.989 14.624 195.325 14.184 194.173 14.184C193.597 14.184 193.149 14.296 192.829 14.52C192.525 14.744 192.373 15.024 192.373 15.36C192.373 15.712 192.605 15.992 193.069 16.2C193.533 16.408 194.149 16.6 194.917 16.776C195.749 16.968 196.509 17.184 197.197 17.424C197.901 17.648 198.461 17.992 198.877 18.456C199.293 18.904 199.501 19.552 199.501 20.4C199.517 21.136 199.325 21.8 198.925 22.392C198.525 22.984 197.949 23.448 197.197 23.784C196.445 24.12 195.557 24.288 194.533 24.288ZM206.858 24C205.61 24 204.61 23.696 203.858 23.088C203.106 22.48 202.73 21.4 202.73 19.848V14.664H200.69V12.096H202.73L203.09 8.904H205.802V12.096H209.018V14.664H205.802V19.872C205.802 20.448 205.922 20.848 206.162 21.072C206.418 21.28 206.85 21.384 207.458 21.384H208.946V24H206.858Z" fill="#2FB945"/>
</svg>
