<svg width="209" height="19" viewBox="0 0 209 19" fill="none" xmlns="http://www.w3.org/2000/svg">
<path d="M0.828648 18V1.2H11.7966V3.672H3.90065V8.28H11.0766V10.68H3.90065V15.528H11.7966V18H0.828648ZM18.443 18.288C17.419 18.288 16.579 18.128 15.923 17.808C15.267 17.472 14.779 17.032 14.459 16.488C14.139 15.944 13.979 15.344 13.979 14.688C13.979 13.584 14.411 12.688 15.275 12C16.139 11.312 17.435 10.968 19.163 10.968H22.187V10.68C22.187 9.864 21.955 9.264 21.491 8.88C21.027 8.496 20.451 8.304 19.763 8.304C19.139 8.304 18.595 8.456 18.131 8.76C17.667 9.048 17.379 9.48 17.267 10.056H14.267C14.347 9.192 14.635 8.44 15.131 7.8C15.643 7.16 16.299 6.672 17.099 6.336C17.899 5.984 18.795 5.808 19.787 5.808C21.483 5.808 22.819 6.232 23.795 7.08C24.771 7.928 25.259 9.128 25.259 10.68V18H22.643L22.355 16.08C22.003 16.72 21.507 17.248 20.867 17.664C20.243 18.08 19.435 18.288 18.443 18.288ZM19.139 15.888C20.019 15.888 20.699 15.6 21.179 15.024C21.675 14.448 21.987 13.736 22.115 12.888H19.499C18.683 12.888 18.099 13.04 17.747 13.344C17.395 13.632 17.219 13.992 17.219 14.424C17.219 14.888 17.395 15.248 17.747 15.504C18.099 15.76 18.563 15.888 19.139 15.888ZM27.8978 18V6.096H30.6338L30.9218 8.328C31.3538 7.56 31.9378 6.952 32.6738 6.504C33.4258 6.04 34.3058 5.808 35.3138 5.808V9.048H34.4498C33.7778 9.048 33.1778 9.152 32.6498 9.36C32.1218 9.568 31.7058 9.928 31.4018 10.44C31.1138 10.952 30.9698 11.664 30.9698 12.576V18H27.8978ZM42.4248 18C41.1768 18 40.1768 17.696 39.4248 17.088C38.6728 16.48 38.2968 15.4 38.2968 13.848V8.664H36.2568V6.096H38.2968L38.6568 2.904H41.3688V6.096H44.5848V8.664H41.3688V13.872C41.3688 14.448 41.4888 14.848 41.7288 15.072C41.9848 15.28 42.4168 15.384 43.0248 15.384H44.5128V18H42.4248ZM46.9297 18V0.719999H50.0017V7.92C50.4017 7.264 50.9377 6.752 51.6097 6.384C52.2977 6 53.0817 5.808 53.9617 5.808C55.4337 5.808 56.5697 6.272 57.3697 7.2C58.1857 8.128 58.5937 9.488 58.5937 11.28V18H55.5457V11.568C55.5457 10.544 55.3377 9.76 54.9217 9.216C54.5217 8.672 53.8817 8.4 53.0017 8.4C52.1377 8.4 51.4177 8.704 50.8417 9.312C50.2817 9.92 50.0017 10.768 50.0017 11.856V18H46.9297ZM66.7366 18V1.2H73.4806C75.2246 1.2 76.5526 1.608 77.4646 2.424C78.3926 3.224 78.8566 4.256 78.8566 5.52C78.8566 6.576 78.5686 7.424 77.9926 8.064C77.4326 8.688 76.7446 9.112 75.9286 9.336C76.8886 9.528 77.6806 10.008 78.3046 10.776C78.9286 11.528 79.2406 12.408 79.2406 13.416C79.2406 14.744 78.7606 15.84 77.8006 16.704C76.8406 17.568 75.4806 18 73.7206 18H66.7366ZM69.8086 8.256H73.0246C73.8886 8.256 74.5526 8.056 75.0166 7.656C75.4806 7.256 75.7126 6.688 75.7126 5.952C75.7126 5.248 75.4806 4.696 75.0166 4.296C74.5686 3.88 73.8886 3.672 72.9766 3.672H69.8086V8.256ZM69.8086 15.504H73.2406C74.1526 15.504 74.8566 15.296 75.3526 14.88C75.8646 14.448 76.1206 13.848 76.1206 13.08C76.1206 12.296 75.8566 11.68 75.3286 11.232C74.8006 10.784 74.0886 10.56 73.1926 10.56H69.8086V15.504ZM87.2966 18.288C86.0966 18.288 85.0326 18.032 84.1046 17.52C83.1766 17.008 82.4486 16.288 81.9206 15.36C81.3926 14.432 81.1286 13.36 81.1286 12.144C81.1286 10.912 81.3846 9.816 81.8966 8.856C82.4246 7.896 83.1446 7.152 84.0566 6.624C84.9846 6.08 86.0726 5.808 87.3206 5.808C88.4886 5.808 89.5206 6.064 90.4166 6.576C91.3126 7.088 92.0086 7.792 92.5046 8.688C93.0166 9.568 93.2726 10.552 93.2726 11.64C93.2726 11.816 93.2646 12 93.2486 12.192C93.2486 12.384 93.2406 12.584 93.2246 12.792H84.1766C84.2406 13.72 84.5606 14.448 85.1366 14.976C85.7286 15.504 86.4406 15.768 87.2726 15.768C87.8966 15.768 88.4166 15.632 88.8326 15.36C89.2646 15.072 89.5846 14.704 89.7926 14.256H92.9126C92.6886 15.008 92.3126 15.696 91.7846 16.32C91.2726 16.928 90.6326 17.408 89.8646 17.76C89.1126 18.112 88.2566 18.288 87.2966 18.288ZM87.3206 8.304C86.5686 8.304 85.9046 8.52 85.3286 8.952C84.7526 9.368 84.3846 10.008 84.2246 10.872H90.1526C90.1046 10.088 89.8166 9.464 89.2886 9C88.7606 8.536 88.1046 8.304 87.3206 8.304ZM100.484 18.288C99.4276 18.288 98.4996 18.12 97.6996 17.784C96.8996 17.432 96.2596 16.952 95.7796 16.344C95.2996 15.736 95.0116 15.032 94.9156 14.232H98.0116C98.1076 14.696 98.3636 15.096 98.7796 15.432C99.2116 15.752 99.7636 15.912 100.436 15.912C101.108 15.912 101.596 15.776 101.9 15.504C102.22 15.232 102.38 14.92 102.38 14.568C102.38 14.056 102.156 13.712 101.708 13.536C101.26 13.344 100.636 13.16 99.8356 12.984C99.3236 12.872 98.8036 12.736 98.2756 12.576C97.7476 12.416 97.2596 12.216 96.8116 11.976C96.3796 11.72 96.0276 11.4 95.7556 11.016C95.4836 10.616 95.3476 10.128 95.3476 9.552C95.3476 8.496 95.7636 7.608 96.5956 6.888C97.4436 6.168 98.6276 5.808 100.148 5.808C101.556 5.808 102.676 6.136 103.508 6.792C104.356 7.448 104.86 8.352 105.02 9.504H102.116C101.94 8.624 101.276 8.184 100.124 8.184C99.5476 8.184 99.0996 8.296 98.7796 8.52C98.4756 8.744 98.3236 9.024 98.3236 9.36C98.3236 9.712 98.5556 9.992 99.0196 10.2C99.4836 10.408 100.1 10.6 100.868 10.776C101.7 10.968 102.46 11.184 103.148 11.424C103.852 11.648 104.412 11.992 104.828 12.456C105.244 12.904 105.452 13.552 105.452 14.4C105.468 15.136 105.276 15.8 104.876 16.392C104.476 16.984 103.9 17.448 103.148 17.784C102.396 18.12 101.508 18.288 100.484 18.288ZM112.809 18C111.561 18 110.561 17.696 109.809 17.088C109.057 16.48 108.681 15.4 108.681 13.848V8.664H106.641V6.096H108.681L109.041 2.904H111.753V6.096H114.969V8.664H111.753V13.872C111.753 14.448 111.873 14.848 112.113 15.072C112.369 15.28 112.801 15.384 113.409 15.384H114.897V18H112.809Z" fill="#043A2A"/>
<path d="M122.812 18V1.2H125.884V8.184H133.42V1.2H136.492V18H133.42V10.68H125.884V18H122.812ZM143.497 18.288C142.473 18.288 141.633 18.128 140.977 17.808C140.321 17.472 139.833 17.032 139.513 16.488C139.193 15.944 139.033 15.344 139.033 14.688C139.033 13.584 139.465 12.688 140.329 12C141.193 11.312 142.489 10.968 144.217 10.968H147.241V10.68C147.241 9.864 147.009 9.264 146.545 8.88C146.081 8.496 145.505 8.304 144.817 8.304C144.193 8.304 143.649 8.456 143.185 8.76C142.721 9.048 142.433 9.48 142.321 10.056H139.321C139.401 9.192 139.689 8.44 140.185 7.8C140.697 7.16 141.353 6.672 142.153 6.336C142.953 5.984 143.849 5.808 144.841 5.808C146.537 5.808 147.873 6.232 148.849 7.08C149.825 7.928 150.313 9.128 150.313 10.68V18H147.697L147.409 16.08C147.057 16.72 146.561 17.248 145.921 17.664C145.297 18.08 144.489 18.288 143.497 18.288ZM144.193 15.888C145.073 15.888 145.753 15.6 146.233 15.024C146.729 14.448 147.041 13.736 147.169 12.888H144.553C143.737 12.888 143.153 13.04 142.801 13.344C142.449 13.632 142.273 13.992 142.273 14.424C142.273 14.888 142.449 15.248 142.801 15.504C143.153 15.76 143.617 15.888 144.193 15.888ZM152.952 18V6.096H155.688L155.976 8.328C156.408 7.56 156.992 6.952 157.728 6.504C158.48 6.04 159.36 5.808 160.368 5.808V9.048H159.504C158.832 9.048 158.232 9.152 157.704 9.36C157.176 9.568 156.76 9.928 156.456 10.44C156.168 10.952 156.024 11.664 156.024 12.576V18H152.952ZM165.391 18L161.023 6.096H164.239L167.263 15.096L170.287 6.096H173.503L169.111 18H165.391ZM180.346 18.288C179.146 18.288 178.082 18.032 177.154 17.52C176.226 17.008 175.498 16.288 174.97 15.36C174.442 14.432 174.178 13.36 174.178 12.144C174.178 10.912 174.434 9.816 174.946 8.856C175.474 7.896 176.194 7.152 177.106 6.624C178.034 6.08 179.122 5.808 180.37 5.808C181.538 5.808 182.57 6.064 183.466 6.576C184.362 7.088 185.058 7.792 185.554 8.688C186.066 9.568 186.322 10.552 186.322 11.64C186.322 11.816 186.314 12 186.298 12.192C186.298 12.384 186.29 12.584 186.274 12.792H177.226C177.29 13.72 177.61 14.448 178.186 14.976C178.778 15.504 179.49 15.768 180.322 15.768C180.946 15.768 181.466 15.632 181.882 15.36C182.314 15.072 182.634 14.704 182.842 14.256H185.962C185.738 15.008 185.362 15.696 184.834 16.32C184.322 16.928 183.682 17.408 182.914 17.76C182.162 18.112 181.306 18.288 180.346 18.288ZM180.37 8.304C179.618 8.304 178.954 8.52 178.378 8.952C177.802 9.368 177.434 10.008 177.274 10.872H183.202C183.154 10.088 182.866 9.464 182.338 9C181.81 8.536 181.154 8.304 180.37 8.304ZM193.533 18.288C192.477 18.288 191.549 18.12 190.749 17.784C189.949 17.432 189.309 16.952 188.829 16.344C188.349 15.736 188.061 15.032 187.965 14.232H191.061C191.157 14.696 191.413 15.096 191.829 15.432C192.261 15.752 192.813 15.912 193.485 15.912C194.157 15.912 194.645 15.776 194.949 15.504C195.269 15.232 195.429 14.92 195.429 14.568C195.429 14.056 195.205 13.712 194.757 13.536C194.309 13.344 193.685 13.16 192.885 12.984C192.373 12.872 191.853 12.736 191.325 12.576C190.797 12.416 190.309 12.216 189.861 11.976C189.429 11.72 189.077 11.4 188.805 11.016C188.533 10.616 188.397 10.128 188.397 9.552C188.397 8.496 188.813 7.608 189.645 6.888C190.493 6.168 191.677 5.808 193.197 5.808C194.605 5.808 195.725 6.136 196.557 6.792C197.405 7.448 197.909 8.352 198.069 9.504H195.165C194.989 8.624 194.325 8.184 193.173 8.184C192.597 8.184 192.149 8.296 191.829 8.52C191.525 8.744 191.373 9.024 191.373 9.36C191.373 9.712 191.605 9.992 192.069 10.2C192.533 10.408 193.149 10.6 193.917 10.776C194.749 10.968 195.509 11.184 196.197 11.424C196.901 11.648 197.461 11.992 197.877 12.456C198.293 12.904 198.501 13.552 198.501 14.4C198.517 15.136 198.325 15.8 197.925 16.392C197.525 16.984 196.949 17.448 196.197 17.784C195.445 18.12 194.557 18.288 193.533 18.288ZM205.858 18C204.61 18 203.61 17.696 202.858 17.088C202.106 16.48 201.73 15.4 201.73 13.848V8.664H199.69V6.096H201.73L202.09 2.904H204.802V6.096H208.018V8.664H204.802V13.872C204.802 14.448 204.922 14.848 205.162 15.072C205.418 15.28 205.85 15.384 206.458 15.384H207.946V18H205.858Z" fill="#2FB945"/>
</svg>
