<svg width="18" height="18" viewBox="0 0 18 18" fill="none" xmlns="http://www.w3.org/2000/svg">
<path d="M2.41453 9.39779L7.47703 14.4603C7.58258 14.5658 7.72573 14.6251 7.875 14.6251C8.02427 14.6251 8.16742 14.5658 8.27297 14.4603C8.37852 14.3547 8.43781 14.2116 8.43781 14.0623C8.43781 13.9131 8.37852 13.7699 8.27297 13.6644L4.17023 9.56232H15.1875C15.3367 9.56232 15.4798 9.50306 15.5852 9.39757C15.6907 9.29208 15.75 9.14901 15.75 8.99982C15.75 8.85064 15.6907 8.70757 15.5852 8.60208C15.4798 8.49659 15.3367 8.43732 15.1875 8.43732H4.17023L8.27297 4.33529C8.37852 4.22975 8.43781 4.08659 8.43781 3.93732C8.43781 3.78806 8.37852 3.6449 8.27297 3.53936C8.16742 3.43381 8.02427 3.37451 7.875 3.37451C7.72573 3.37451 7.58258 3.43381 7.47703 3.53936L2.41453 8.60186C2.36223 8.6541 2.32074 8.71613 2.29243 8.78442C2.26413 8.85271 2.24956 8.9259 2.24956 8.99982C2.24956 9.07375 2.26413 9.14694 2.29243 9.21523C2.32074 9.28351 2.36223 9.34555 2.41453 9.39779Z" fill="#043A2A"/>
</svg>
