<svg width="48" height="48" viewBox="0 0 48 48" fill="none" xmlns="http://www.w3.org/2000/svg">
<path d="M24 3C15.7125 3 9 9.7125 9 18C9 35.25 24 45 24 45C24 45 39 36 39 18C39 9.7125 32.2875 3 24 3ZM24 29.25C17.79 29.25 12.75 24.21 12.75 18C12.75 11.79 17.79 6.75 24 6.75C30.21 6.75 35.25 11.79 35.25 18C35.25 24.21 30.21 29.25 24 29.25Z" fill="#2FB945"/>
<path d="M32.4972 17.0025C31.1697 16.1925 29.2347 16.29 27.5772 17.2425C26.0547 18.12 25.0497 19.5525 24.9147 20.985C24.8622 21.0375 24.8022 21.09 24.7497 21.1425V18.5475C25.8897 17.7075 26.6022 16.14 26.6022 14.415C26.6022 12.5025 25.7247 10.7775 24.3597 10.0275C24.1347 9.90001 23.8647 9.90001 23.6397 10.0275C22.2747 10.7775 21.3972 12.5025 21.3972 14.415C21.3972 16.14 22.1172 17.7 23.2497 18.5475V21.12C23.1897 21.0675 23.1222 21.015 23.0547 20.9625C22.8672 19.5375 21.8097 18.135 20.2497 17.3175C18.5547 16.425 16.6197 16.41 15.3222 17.265C15.1047 17.4075 14.9772 17.6475 14.9847 17.9025C15.0147 19.455 16.1322 21.0375 17.8347 21.93C18.6972 22.3875 19.6272 22.6125 20.5047 22.6125C21.1422 22.6125 21.7422 22.4925 22.2747 22.2525C22.7397 22.635 23.0772 23.0175 23.2572 23.3775V25.4925C23.2572 25.905 23.5947 26.2425 24.0072 26.2425C24.4197 26.2425 24.7572 25.905 24.7572 25.4925V23.415C25.0347 23.0475 25.4322 22.575 25.7622 22.245C26.2497 22.44 26.7822 22.5375 27.3447 22.5375C28.2747 22.5375 29.2647 22.275 30.1722 21.75C31.8372 20.7975 32.8872 19.17 32.8647 17.6175C32.8647 17.3625 32.7222 17.1225 32.5047 16.9875L32.4972 17.0025Z" fill="#2FB945"/>
</svg>
