<svg width="48" height="48" viewBox="0 0 48 48" fill="none" xmlns="http://www.w3.org/2000/svg">
<path d="M43.8225 13.38L41.82 18.255C42.42 20.0925 42.7425 22.02 42.7425 24.0075C42.7425 34.35 34.335 42.7575 23.9925 42.7575C13.65 42.7575 5.25 34.3425 5.25 24C5.25 22.7175 5.385 21.4575 5.64 20.235L8.76 26.16L4.29 17.6625C4.0725 17.2575 4.11 16.755 4.3875 16.3875C4.6575 16.035 5.0775 15.8775 5.505 15.9825L6.9075 16.3275C9.9075 9.66 16.635 5.25 24.0075 5.25C28.1475 5.25 32.0775 6.5775 35.37 9.0825C35.655 9.2925 35.925 9.5175 36.18 9.7425L40.17 8.355C35.9475 3.99 30.1125 1.5 24.0075 1.5C11.595 1.5 1.5 11.595 1.5 24C1.5 36.405 11.595 46.5 24 46.5C36.405 46.5 46.5 36.405 46.5 24C46.5 20.28 45.57 16.6275 43.8225 13.38Z" fill="#2FB945"/>
<path d="M44.8983 7.87497C44.5683 7.52247 44.0808 7.40997 43.6308 7.56747L33.1533 11.2125C28.6233 12.7875 25.4508 15.915 24.2208 20.0175C23.6658 21.8625 24.1758 23.8425 25.5408 25.245C25.8333 24.8925 26.1483 24.5475 26.4708 24.2175C26.4708 24.2175 34.3308 15.6975 38.2383 13.4175C38.6133 13.2 39.1008 13.3275 39.3183 13.695C39.5283 14.0475 39.4008 14.49 39.0408 14.7075C35.2233 16.9425 27.4008 25.425 27.4008 25.425C27.1233 25.71 26.8683 26.0025 26.6133 26.3025L26.8458 26.5275C27.8583 27.5025 29.2158 28.035 30.5958 28.035C30.9108 28.035 31.2258 28.005 31.5408 27.9525C35.5158 27.24 38.8083 24.585 40.3383 20.85L45.1383 9.16497C45.3183 8.72247 45.2283 8.22747 44.8983 7.88247V7.87497Z" fill="#2FB945"/>
<path d="M16.9038 27.5475C15.3963 25.35 13.3338 23.685 10.9263 22.71C10.5588 22.56 10.3638 22.155 10.4838 21.7725C10.6113 21.375 11.0388 21.15 11.4213 21.3C14.1063 22.38 16.4013 24.2325 18.0813 26.6775L18.5163 27.315C18.5163 27.315 18.8088 27.6975 19.2288 28.2825L19.4238 28.02C20.3013 26.8425 20.4888 25.2675 19.9038 23.9025C18.6813 21.0375 16.2438 19.035 13.0488 18.27L5.82634 16.5375C5.42134 16.44 5.01634 16.5825 4.76134 16.9125C4.49884 17.25 4.46884 17.715 4.67134 18.09L8.92384 25.965C10.3188 28.5525 12.8088 30.21 15.5688 30.3975C15.6513 30.3975 15.7338 30.405 15.8163 30.405C16.7388 30.405 17.6238 30.045 18.3063 29.4075C18.0738 29.1 17.8488 28.785 17.6088 28.485L16.8963 27.5475H16.9038Z" fill="#2FB945"/>
<path d="M25.535 25.2525C23.75 27.39 22.565 29.9775 22.115 32.73C21.47 31.425 20.0825 29.4525 19.235 28.2825L18.77 28.905C18.635 29.0925 18.4775 29.2575 18.3125 29.4075C19.6025 31.14 20.6825 33.0075 21.5075 35.01C22.1075 36.465 22.4375 38.0625 22.49 39.7575C22.505 40.1625 22.82 40.4925 23.225 40.5C23.645 40.5 24.005 40.1625 23.99 39.7425C23.945 38.2725 23.7125 36.8775 23.2925 35.5575L23.465 33.855C23.7425 31.08 24.845 28.4475 26.6075 26.3025L25.67 25.4025C25.6175 25.35 25.58 25.2975 25.5275 25.245L25.535 25.2525Z" fill="#2FB945"/>
</svg>
