<svg width="48" height="48" viewBox="0 0 48 48" fill="none" xmlns="http://www.w3.org/2000/svg">
<path d="M13.0425 22.1925C13.0069 22.1579 12.9693 22.1253 12.93 22.095C12.3958 21.6028 11.7129 21.3024 10.9891 21.2413C10.2652 21.1802 9.54167 21.3618 8.9325 21.7575C8.73793 21.8834 8.55695 22.0292 8.3925 22.1925C7.77774 22.8086 7.43248 23.6434 7.43248 24.5138C7.43248 25.3841 7.77774 26.2189 8.3925 26.835L14.7264 33.1689C14.867 33.3096 14.946 33.5005 14.946 33.6994C14.9459 33.8984 14.8668 34.0892 14.7261 34.2299C14.5854 34.3705 14.3945 34.4495 14.1956 34.4494C13.9966 34.4494 13.8058 34.3703 13.6651 34.2296L7.335 27.8925C6.43834 26.9972 5.93387 25.7824 5.93246 24.5153C5.93105 23.2482 6.43283 22.0323 7.3275 21.135C7.56388 20.8973 7.82542 20.6861 8.1075 20.505C8.36715 20.3346 8.6436 20.1914 8.9325 20.0775V13.1755C8.94796 12.3955 8.66606 11.6388 8.14403 11.0591C7.62199 10.4793 6.89893 10.1199 6.12158 10.0538C5.71981 10.0327 5.31795 10.0936 4.94045 10.2327C4.56295 10.3718 4.21769 10.5863 3.92569 10.8631C3.63369 11.1398 3.40105 11.4731 3.24191 11.8426C3.08277 12.2122 3.00047 12.6102 3 13.0125V27.78C3.00094 28.4163 3.18587 29.0389 3.5325 29.5725L11.235 41.4225V44.25C11.2356 44.4487 11.3148 44.6392 11.4553 44.7797C11.5958 44.9202 11.7863 44.9994 11.985 45H21.465C21.6637 44.9994 21.8542 44.9202 21.9947 44.7797C22.1352 44.6392 22.2144 44.4487 22.215 44.25V32.73C22.215 31.856 21.8678 31.0178 21.2498 30.3998L13.0425 22.1925Z" fill="#2FB945"/>
<path d="M41.8747 10.0538C41.0973 10.1199 40.3743 10.4793 39.8522 11.0591C39.3302 11.6388 39.0483 12.3955 39.0638 13.1755V20.0775C39.3527 20.1914 39.6291 20.3346 39.8887 20.505C40.1708 20.6861 40.4324 20.8973 40.6687 21.135C41.5634 22.0323 42.0652 23.2482 42.0638 24.5153C42.0624 25.7824 41.5579 26.9972 40.6613 27.8925L34.3311 34.2295C34.1905 34.3703 33.9997 34.4494 33.8007 34.4494C33.6017 34.4495 33.4109 34.3705 33.2701 34.2298C33.1294 34.0892 33.0503 33.8984 33.0503 33.6994C33.0502 33.5004 33.1292 33.3096 33.2699 33.1689L39.6038 26.835C40.2185 26.2189 40.5638 25.3841 40.5638 24.5138C40.5638 23.6434 40.2185 22.8086 39.6038 22.1925C39.4393 22.0292 39.2583 21.8834 39.0638 21.7575C38.4546 21.3618 37.731 21.1802 37.0072 21.2413C36.2833 21.3024 35.6005 21.6027 35.0662 22.095C35.0269 22.1253 34.9894 22.1579 34.9538 22.1925L26.7465 30.3998C26.1285 31.0178 25.7813 31.856 25.7812 32.73V44.25C25.7818 44.4487 25.8611 44.6392 26.0016 44.7797C26.1421 44.9202 26.3325 44.9994 26.5313 45H36.0113C36.21 44.9994 36.4004 44.9202 36.5409 44.7797C36.6814 44.6392 36.7607 44.4487 36.7613 44.25V41.4225L44.4638 29.5725C44.8104 29.0389 44.9953 28.4163 44.9963 27.78V13.0125C44.9958 12.6102 44.9135 12.2122 44.7543 11.8426C44.5952 11.4731 44.3626 11.1398 44.0706 10.8631C43.7786 10.5863 43.4333 10.3718 43.0558 10.2327C42.6783 10.0936 42.2764 10.0327 41.8747 10.0538Z" fill="#2FB945"/>
<path d="M28.8463 23.9775C28.9959 24.0658 29.1706 24.1019 29.343 24.0801C29.5154 24.0584 29.6757 23.9801 29.7988 23.8575C29.936 23.7089 30.0088 23.5121 30.0013 23.31C29.9827 22.9032 30.0492 22.497 30.1964 22.1174C30.3436 21.7377 30.5683 21.3929 30.8563 21.105C31.1442 20.817 31.489 20.5923 31.8686 20.4451C32.2483 20.2979 32.6545 20.2314 33.0613 20.25C33.189 20.2567 33.3161 20.2282 33.4288 20.1675C33.5242 20.1218 33.6086 20.0559 33.6759 19.9743C33.7433 19.8927 33.792 19.7974 33.8188 19.695C33.8453 19.5941 33.851 19.4889 33.8355 19.3857C33.82 19.2826 33.7837 19.1836 33.7288 19.095C33.5081 18.7527 33.3615 18.368 33.2983 17.9656C33.2352 17.5633 33.257 17.1521 33.3622 16.7587C33.4675 16.3653 33.6539 15.9982 33.9095 15.6811C34.165 15.364 34.4841 15.1039 34.8463 14.9175C34.9687 14.8542 35.0713 14.7584 35.143 14.6407C35.2146 14.5229 35.2525 14.3878 35.2525 14.25C35.2525 14.1122 35.2146 13.977 35.143 13.8593C35.0713 13.7415 34.9687 13.6458 34.8463 13.5825C34.4841 13.3961 34.1651 13.1359 33.9095 12.8188C33.6539 12.5017 33.4675 12.1347 33.3623 11.7412C33.257 11.3478 33.2352 10.9367 33.2984 10.5343C33.3615 10.132 33.5081 9.74728 33.7288 9.40497C33.8066 9.28116 33.8473 9.13761 33.8459 8.99137C33.8446 8.84513 33.8013 8.70234 33.7213 8.57997C33.6489 8.47282 33.5502 8.38615 33.4346 8.32834C33.3189 8.27052 33.1904 8.24353 33.0613 8.24997C32.6545 8.26852 32.2483 8.20207 31.8686 8.05486C31.489 7.90764 31.1442 7.6829 30.8563 7.39496C30.5683 7.10703 30.3436 6.76223 30.1964 6.38258C30.0492 6.00292 29.9827 5.59675 30.0013 5.18997C30.0066 5.05279 29.9744 4.91674 29.9082 4.79651C29.8419 4.67628 29.744 4.57643 29.6252 4.50773C29.5063 4.43904 29.3709 4.4041 29.2337 4.4067C29.0964 4.4093 28.9624 4.44933 28.8463 4.52247C28.5034 4.74359 28.1181 4.89052 27.7151 4.95381C27.3121 5.01711 26.9003 4.99536 26.5063 4.88997C26.1127 4.78565 25.7457 4.59945 25.429 4.34356C25.1124 4.08767 24.8533 3.76784 24.6688 3.40497C24.6052 3.28288 24.5093 3.18056 24.3916 3.10916C24.2739 3.03776 24.1389 3 24.0013 3C23.8636 3 23.7286 3.03776 23.6109 3.10916C23.4932 3.18056 23.3973 3.28288 23.3338 3.40497C23.1492 3.76784 22.8901 4.08767 22.5735 4.34356C22.2568 4.59945 21.8898 4.78565 21.4963 4.88997C21.1022 4.99536 20.6904 5.01711 20.2874 4.95381C19.8844 4.89052 19.4991 4.74359 19.1563 4.52247C19.0072 4.43217 18.832 4.39489 18.6591 4.41667C18.4862 4.43845 18.3257 4.51802 18.2038 4.64247C18.0665 4.79099 17.9936 4.98787 18.0013 5.18997C18.0228 5.59708 17.9578 6.00413 17.8104 6.38423C17.663 6.76434 17.4366 7.10884 17.1463 7.39497C16.8612 7.68677 16.5168 7.91408 16.1365 8.06157C15.7561 8.20905 15.3485 8.2733 14.9413 8.24997C14.8138 8.24688 14.6876 8.27522 14.5738 8.33247C14.4783 8.3781 14.3939 8.44402 14.3265 8.52563C14.2592 8.60724 14.2104 8.70257 14.1838 8.80497C14.1572 8.90585 14.1515 9.01108 14.167 9.11424C14.1825 9.21739 14.2188 9.31631 14.2738 9.40497C14.4945 9.74729 14.6411 10.132 14.7042 10.5343C14.7673 10.9367 14.7455 11.3478 14.6403 11.7412C14.535 12.1347 14.3486 12.5017 14.093 12.8188C13.8375 13.1359 13.5184 13.3961 13.1563 13.5825C13.0338 13.6458 12.9312 13.7415 12.8595 13.8593C12.7879 13.977 12.75 14.1122 12.75 14.25C12.75 14.3878 12.7879 14.5229 12.8595 14.6407C12.9312 14.7584 13.0338 14.8542 13.1563 14.9175C13.5184 15.1039 13.8375 15.364 14.093 15.6811C14.3486 15.9982 14.535 16.3653 14.6403 16.7587C14.7455 17.1521 14.7673 17.5633 14.7042 17.9656C14.641 18.368 14.4944 18.7527 14.2738 19.095C14.1959 19.2188 14.1552 19.3623 14.1566 19.5086C14.1579 19.6548 14.2012 19.7976 14.2812 19.92C14.3553 20.0253 14.4544 20.1106 14.5696 20.1682C14.6848 20.2258 14.8125 20.2539 14.9412 20.25C15.348 20.2314 15.7542 20.2979 16.1338 20.4451C16.5135 20.5923 16.8583 20.817 17.1462 21.105C17.4342 21.3929 17.6589 21.7377 17.8061 22.1174C17.9534 22.497 18.0198 22.9032 18.0013 23.31C17.9959 23.4472 18.0281 23.5832 18.0943 23.7035C18.1606 23.8237 18.2585 23.9235 18.3773 23.9922C18.4962 24.0609 18.6316 24.0959 18.7688 24.0933C18.9061 24.0907 19.0401 24.0506 19.1563 23.9775C19.4991 23.7564 19.8844 23.6094 20.2874 23.5462C20.6904 23.4829 21.1022 23.5046 21.4963 23.61C21.8898 23.7143 22.2568 23.9005 22.5735 24.1564C22.8901 24.4123 23.1492 24.7321 23.3338 25.095C23.3828 25.1885 23.4509 25.2709 23.5335 25.3367C23.6161 25.4026 23.7116 25.4505 23.8138 25.4775C23.8751 25.4923 23.9381 25.4999 24.0013 25.5C24.1388 25.4992 24.2735 25.4612 24.391 25.3898C24.5086 25.3185 24.6046 25.2166 24.6688 25.095C24.8533 24.7321 25.1124 24.4123 25.429 24.1564C25.7457 23.9005 26.1127 23.7143 26.5063 23.61C26.9003 23.5046 27.3121 23.4829 27.7151 23.5462C28.1181 23.6094 28.5034 23.7564 28.8463 23.9775ZM24.0013 20.6025C22.7448 20.6025 21.5167 20.2299 20.472 19.5319C19.4273 18.8339 18.6131 17.8417 18.1323 16.681C17.6515 15.5202 17.5257 14.2429 17.7708 13.0107C18.0159 11.7784 18.6209 10.6465 19.5094 9.75807C20.3978 8.86966 21.5297 8.26464 22.7619 8.01953C23.9942 7.77442 25.2715 7.90022 26.4322 8.38103C27.593 8.86183 28.5851 9.67605 29.2832 10.7207C29.9812 11.7654 30.3538 12.9936 30.3538 14.25C30.3518 15.9341 29.6819 17.5488 28.491 18.7397C27.3001 19.9306 25.6854 20.6005 24.0013 20.6025Z" fill="#2FB945"/>
<path d="M24.0009 19.1024C26.6809 19.1024 28.8534 16.9299 28.8534 14.2499C28.8534 11.57 26.6809 9.39746 24.0009 9.39746C21.321 9.39746 19.1484 11.57 19.1484 14.2499C19.1484 16.9299 21.321 19.1024 24.0009 19.1024Z" fill="#2FB945"/>
</svg>
